<svg width="76" height="76" viewBox="0 0 76 76" fill="none" xmlns="http://www.w3.org/2000/svg">
<path d="M72.2003 0H31.667C31.4746 0.00337863 31.2857 0.0510578 31.1147 0.139333C21.0926 1.10847 13.2718 9.23675 12.6898 19.2888C12.5773 21.7711 12.9207 24.253 13.7031 26.6114C6.16133 26.8804 0.204541 33.1048 0.266996 40.6512C0.32945 48.1975 6.38844 54.3225 13.9337 54.4667H63.3337C66.1319 54.4667 68.4003 56.7351 68.4003 59.5333C68.4003 62.3316 66.1319 64.6 63.3337 64.6H36.7337C36.7337 63.2009 35.5995 62.0667 34.2003 62.0667H24.067C22.6679 62.0667 21.5337 63.2009 21.5337 64.6H18.4557C17.9426 64.5704 17.505 64.2183 17.3663 63.7235C16.4513 61.2153 14.0702 59.543 11.4003 59.5333H6.33366C2.83759 59.5375 0.00451372 62.3706 0.00032597 65.8667V72.0607C-0.0239488 73.9515 1.31006 75.5881 3.16699 75.9455C3.37633 75.9804 3.58811 75.9986 3.80033 76C4.80815 76 5.77469 75.5996 6.48733 74.887C7.19997 74.1744 7.60033 73.2078 7.60033 72.2V67.1333L10.2743 67.1789C10.9009 70.1006 13.4789 72.1908 16.467 72.2H21.5337C21.5337 73.5991 22.6679 74.7333 24.067 74.7333H34.2003C35.5995 74.7333 36.7337 73.5991 36.7337 72.2H63.3337C70.3293 72.2 76.0003 66.5289 76.0003 59.5333C76.0003 52.5377 70.3293 46.8667 63.3337 46.8667H13.9337C10.4359 46.8667 7.60033 44.0311 7.60033 40.5333C7.60033 37.0355 10.4359 34.2 13.9337 34.2H18.2201C18.2365 34.2177 18.2505 34.2367 18.2669 34.2545C22.08 38.2816 27.3878 40.5539 32.9337 40.5333C41.7763 40.5333 47.9753 36.7979 52.0755 34.3267L52.5822 34.0189C57.9123 30.8205 70.4688 23.1078 74.189 20.8202C75.3178 20.133 76.0049 18.9054 76.0003 17.5839V3.8C76.0003 1.70132 74.299 0 72.2003 0V0ZM16.467 69.6667C14.6769 69.6617 13.1318 68.4107 12.7544 66.6609C12.528 65.468 11.4871 64.6036 10.273 64.6H7.60033C6.20121 64.6 5.06699 65.7342 5.06699 67.1333V72.2C5.06667 72.5754 4.89983 72.9314 4.61147 73.1718C4.32311 73.4122 3.94296 73.5123 3.57359 73.4451C2.94298 73.2879 2.50896 72.7101 2.53366 72.0607V65.8667C2.53366 63.768 4.23498 62.0667 6.33366 62.0667H11.4003C13.0023 62.0722 14.4313 63.0751 14.9812 64.5797C15.4721 66.0878 16.8698 67.1151 18.4557 67.1333H21.5337V69.6667H16.467ZM43.067 2.53333V3.8C43.067 4.49956 42.4999 5.06667 41.8003 5.06667H34.2003C33.5008 5.06667 32.9337 4.49956 32.9337 3.8V2.55867C33.1135 2.55867 33.2896 2.53333 33.4707 2.53333H43.067ZM24.067 72.2V64.6H34.2003V72.2H24.067ZM13.9337 31.6667C9.03674 31.6667 5.06699 35.6364 5.06699 40.5333C5.06699 45.4303 9.03674 49.4 13.9337 49.4H63.3337C68.9301 49.4 73.467 53.9368 73.467 59.5333C73.467 65.1298 68.9301 69.6667 63.3337 69.6667H36.7337V67.1333H63.3337C67.531 67.1333 70.9337 63.7307 70.9337 59.5333C70.9337 55.336 67.531 51.9333 63.3337 51.9333H13.9337C7.63761 51.9333 2.53366 46.8294 2.53366 40.5333C2.53366 34.2373 7.63761 29.1333 13.9337 29.1333H14.7C15.1368 30.0136 15.638 30.8604 16.1997 31.6667H13.9337ZM73.467 17.5839C73.4695 18.0232 73.2417 18.4318 72.8666 18.6605C69.1477 20.9481 56.6026 28.6545 51.2813 31.8478L50.7683 32.1556C46.9075 34.4837 41.072 38 32.9337 38C28.0814 38.0001 23.4409 36.012 20.0939 32.4988C16.7469 28.9857 14.9856 24.2545 15.2206 19.4079C15.7144 10.9776 22.0484 4.04685 30.4003 2.79807V3.8C30.4003 5.89868 32.1016 7.6 34.2003 7.6H41.8003C43.899 7.6 45.6003 5.89868 45.6003 3.8V2.53333H72.2003C72.8999 2.53333 73.467 3.10044 73.467 3.8V17.5839Z" fill="#5D62B5"/>
</svg>
